<svg width="85" height="80" viewBox="0 0 85 80" fill="none" xmlns="http://www.w3.org/2000/svg">
<path d="M37 78.5078C57.4345 78.5078 74 61.9423 74 41.5078C74 21.0733 57.4345 4.50781 37 4.50781C16.5655 4.50781 0 21.0733 0 41.5078C0 61.9423 16.5655 78.5078 37 78.5078Z" fill="#DCE4E7"/>
<g clip-path="url(#clip0_1795_42354)">
<path d="M38.5169 10.2307C38.7191 10.1286 38.954 10.084 39.1966 10.1134C39.8431 10.1943 40.3017 10.7869 40.2207 11.4334C39.9864 13.2871 39.3269 14.9592 38.2416 16.4481C38.2365 16.4563 38.2291 16.4637 38.224 16.4718C37.8393 16.9717 37.402 17.4296 36.912 17.8419C36.9031 17.8501 36.895 17.8597 36.8847 17.8686C36.6623 18.0772 35.6519 18.8968 33.853 20.3257C33.6083 20.527 33.335 20.778 33.0316 21.0794C32.9403 21.17 32.8386 21.2436 32.7294 21.2987C32.2867 21.5223 31.7311 21.4491 31.3607 21.0787C30.8998 20.617 30.8997 19.8688 31.3614 19.4078C31.723 19.0456 32.0589 18.7389 32.3684 18.4863C32.3728 18.484 32.3765 18.4803 32.3817 18.4759C34.0775 17.1287 35.0326 16.3574 35.2469 16.1621C35.2793 16.1273 35.3147 16.0946 35.3515 16.0649C35.717 15.7618 36.0432 15.4248 36.3279 15.0569C37.1749 13.8958 37.6894 12.5895 37.8722 11.1397C37.923 10.7343 38.1746 10.4036 38.5125 10.2329L38.5169 10.2307Z" fill="#A7B5BC"/>
<path d="M32.5564 11.9908C32.8191 11.8581 33.1324 11.8221 33.4374 11.9163C34.0607 12.109 34.4108 12.7693 34.2181 13.3925C34.0765 13.853 33.7904 14.4086 33.3605 15.0609C32.7994 15.9888 32.2782 16.7428 31.8007 17.3229C31.2248 18.0749 30.1695 19.1171 28.6348 20.4496C28.5589 20.5157 28.4786 20.5693 28.393 20.6125C27.9208 20.851 27.3304 20.7491 26.9694 20.3313C26.5423 19.8377 26.5955 19.0922 27.0869 18.6644C28.5177 17.4233 29.4692 16.4909 29.9399 15.8679C29.9494 15.8538 29.9612 15.8405 29.973 15.8271C30.385 15.3301 30.8466 14.6562 31.3578 13.8091C31.3659 13.7958 31.3755 13.7817 31.3835 13.7684C31.6922 13.3014 31.8845 12.945 31.9604 12.6992C32.0582 12.3794 32.2797 12.1323 32.5571 11.9922L32.5564 11.9908Z" fill="#A7B5BC"/>
<path d="M29.2134 12.1698C29.7919 11.8777 30.4981 12.1063 30.7954 12.684C31.0942 13.2646 30.8664 13.976 30.2857 14.2748C30.0327 14.4045 29.8534 14.5006 29.7509 14.5616C29.7465 14.5638 29.742 14.5661 29.7376 14.5683C29.6638 14.6093 29.5893 14.6525 29.5141 14.6979C29.1084 14.9435 28.8437 15.1013 28.7205 15.1727C28.5722 15.2606 28.3015 15.4139 27.9091 15.6344L27.9061 15.6358C27.5446 15.8369 27.1367 16.0522 26.6807 16.2825L26.6762 16.2847C26.3118 16.4688 26.0771 16.5836 25.9723 16.6328C25.8646 16.6872 25.6056 16.8088 25.1923 16.9989L25.1864 17.0019C24.6558 17.2421 24.103 17.475 23.5257 17.7035C22.919 17.9433 22.2331 17.6451 21.9934 17.0384C21.7671 16.4655 22.0203 15.8228 22.5589 15.5508C22.5914 15.5344 22.6246 15.5195 22.6586 15.506C23.1989 15.2924 23.7163 15.0737 24.2107 14.8499C24.5952 14.6724 24.8247 14.5658 24.897 14.5293C24.9 14.5278 24.9029 14.5263 24.9044 14.5256C24.9044 14.5256 24.9118 14.5218 24.9148 14.5203C24.9236 14.5159 24.9325 14.5114 24.9413 14.5069C25.0217 14.4682 25.2453 14.3571 25.615 14.1723C26.04 13.9576 26.4199 13.7565 26.7526 13.5718C27.1355 13.3581 27.3914 13.2122 27.5213 13.1355L27.5257 13.1333C27.5257 13.1333 27.5375 13.1273 27.5449 13.1236C27.6481 13.064 27.8989 12.9151 28.2972 12.6733L28.2987 12.6725L28.309 12.6673C28.3916 12.6182 28.4742 12.569 28.5568 12.5236C28.6955 12.4425 28.9094 12.327 29.1979 12.1795C29.2009 12.178 29.2038 12.1765 29.2068 12.175L29.2134 12.1698Z" fill="#A7B5BC"/>
</g>
<g clip-path="url(#clip1_1795_42354)">
<path d="M26.5264 31.5C25.9834 31.5 25.5374 31.8471 25.1866 32.5431C25.1866 32.5431 25.1848 32.5487 25.1829 32.5506C25.1549 32.6065 25.1288 32.6644 25.1027 32.726C24.7817 32.948 24.5615 33.31 24.5317 33.7299C24.4682 34.6666 24.4999 35.5287 24.6287 36.3181C24.7313 37.0421 24.8451 37.6672 24.9702 38.1971L24.9739 38.2139C25.015 38.38 25.0579 38.5218 25.1008 38.6394C25.3583 39.341 25.7763 39.6918 26.3566 39.6918C26.4126 39.6918 26.4704 39.6881 26.5283 39.6825C26.5283 39.6825 26.5432 39.6825 26.5488 39.6825C27.0844 39.6825 27.521 39.3895 27.8588 38.8017C27.9297 38.6804 27.9987 38.5368 28.0659 38.3744C28.2357 37.9639 28.3551 37.5011 28.4242 36.9842C28.4242 36.9712 28.4279 36.9581 28.4279 36.9469C28.4932 36.3311 28.5268 35.7284 28.5305 35.1369C28.538 34.439 28.5044 33.9128 28.4316 33.5582C28.357 33.1738 28.2506 32.8454 28.1125 32.5748C27.9726 32.3005 27.7972 32.0729 27.5882 31.8937C27.5061 31.8247 27.4165 31.765 27.3214 31.7165C27.0359 31.5746 26.7709 31.5019 26.5264 31.5019V31.5Z" fill="#A7B5BC"/>
<path d="M39.99 31.5564C39.949 31.6273 39.9061 31.6926 39.8613 31.7523C39.8613 31.7523 39.8632 31.7374 39.865 31.7299C39.9117 31.6758 39.9527 31.6179 39.99 31.5564ZM39.6579 31.9258C39.6019 31.9687 39.5366 32.0098 39.4638 32.049C39.5329 32.0135 39.5963 31.9725 39.6579 31.9258ZM38.8331 29.5C38.4431 29.5 38.1259 29.6437 37.8796 29.9311C37.8087 29.9964 37.7452 30.0673 37.6855 30.1475C36.9839 30.2259 36.4595 30.8417 36.5025 31.5545C36.579 32.7917 36.6293 33.5138 36.6536 33.7228C36.6592 33.7601 36.6648 33.7993 36.6704 33.8348C36.7506 34.4356 36.8365 34.9245 36.9316 35.3015L36.9354 35.3164C37.0604 35.7904 37.2302 36.1841 37.4448 36.4976C37.7378 36.923 38.1072 37.2067 38.5532 37.3485C38.5943 37.3615 38.6372 37.3727 38.6801 37.3821C38.8201 37.4119 38.9563 37.4269 39.085 37.4269C39.6971 37.4269 40.186 37.0928 40.5499 36.4229C40.7197 36.1094 40.8615 35.6915 40.9734 35.169C40.9958 35.0645 41.0182 34.9525 41.0388 34.8368C41.0406 34.8256 41.0425 34.8144 41.0443 34.8014C41.2589 33.3981 41.2589 32.3102 41.0481 31.5358C40.8764 30.8734 40.4901 30.3043 39.8911 29.8322C39.7643 29.7314 39.6187 29.6549 39.419 29.5933L39.4564 29.6045C39.4414 29.6008 39.4284 29.5952 39.4134 29.5914C39.2045 29.5317 39.0104 29.5 38.8331 29.5Z" fill="#A7B5BC"/>
<path d="M36.1794 42.99C36.129 42.8538 36.0637 42.7362 35.9891 42.6336C35.9518 42.1671 35.6644 41.7435 35.0523 41.6203C32.9251 41.1911 30.5552 41.9002 29.4748 43.9081C28.4131 45.8804 28.7116 48.6776 30.4078 50.2115C32.0331 51.6819 34.7333 51.6147 36.0488 49.7748C37.4147 47.864 36.9296 45.0389 36.1794 42.99ZM34.1921 47.6233C33.9663 48.5656 33.0856 48.9687 32.2552 48.3641C31.3595 47.7091 31.2662 46.1473 31.7308 45.2273C32.1246 44.4492 32.9643 44.0853 33.8002 44.0853C34.1791 45.2012 34.4664 46.4776 34.1921 47.6233Z" fill="#A7B5BC"/>
</g>
<rect x="58.75" y="0.5" width="26" height="26" rx="13" fill="#A7B5BC"/>
<path d="M59.7342 26.694C61.0738 25.542 61.7172 23.4529 61.9355 22.0237C61.9707 21.7935 62.239 21.6738 62.4274 21.8108L67.1929 25.2767C67.3496 25.3906 67.3588 25.6212 67.2048 25.7388C65.1101 27.3379 62.122 27.7108 59.93 27.6655C59.5872 27.6584 59.4743 26.9176 59.7342 26.694Z" fill="#A7B5BC"/>
<path d="M67.3855 10.72C67.2855 10.02 67.2655 9.28 67.5055 8.6C67.8055 7.7 68.5055 6.98 69.3655 6.58C71.1655 5.74 73.2055 5.88 74.7255 7.2C76.4055 8.64 76.2855 11.12 75.1855 12.82C75.1855 12.82 75.1655 12.84 75.1655 12.86C74.7255 13.48 74.0655 13.92 73.5655 14.48C72.9855 15.1 72.9855 15.68 72.8855 16.46C72.8055 17.2 72.5855 17.84 71.7455 17.82C70.6455 17.78 70.6855 16.3 70.8055 15.52C70.9655 14.58 71.4055 13.74 72.0255 13C72.7055 12.22 73.4855 11.7 73.6255 10.58C73.7655 9.56 72.9655 8.42 71.8855 8.36C70.9255 8.32 69.5855 8.98 69.6455 10.06C69.6855 10.72 70.1255 11.36 69.5455 11.9C68.6055 12.82 67.5255 11.66 67.3855 10.72ZM73.1455 20.7C73.1455 21.08 73.0055 21.42 72.7055 21.74C72.4255 22.04 72.0855 22.18 71.7255 22.18C71.3655 22.18 71.0455 22.04 70.7655 21.74C70.4855 21.42 70.3455 21.08 70.3455 20.7C70.3455 20.28 70.4855 19.94 70.7655 19.66C71.0455 19.36 71.3655 19.2 71.7255 19.2C72.0855 19.2 72.4255 19.36 72.7055 19.66C73.0055 19.96 73.1455 20.3 73.1455 20.7Z" fill="white"/>
<defs>
<clipPath id="clip0_1795_42354">
<rect width="19" height="9.73392" fill="white" transform="matrix(-0.89263 0.450789 0.450789 0.89263 38.46 7.5)"/>
</clipPath>
<clipPath id="clip1_1795_42354">
<rect width="20" height="34.2657" fill="white" transform="translate(23.5 29.5)"/>
</clipPath>
</defs>
</svg>
