<svg width="85" height="80" viewBox="0 0 85 80" fill="none" xmlns="http://www.w3.org/2000/svg">
<path d="M46 76.5078C66.4345 76.5078 83 59.9423 83 39.5078C83 19.0733 66.4345 2.50781 46 2.50781C25.5655 2.50781 9 19.0733 9 39.5078C9 59.9423 25.5655 76.5078 46 76.5078Z" fill="#DCE4E7"/>
<g clip-path="url(#clip0_1795_45820)">
<path d="M52.3461 8.5C51.8812 8.5 51.4499 8.80024 51.3067 9.26814C49.9075 13.7886 48.3195 16.7712 46.5409 18.2145C46.39 18.2556 46.2452 18.2755 46.1065 18.2755C45.8901 18.2755 45.6858 18.2267 45.4969 18.1276C45.5426 18.0133 45.5883 17.8975 45.631 17.7786C45.6432 17.7466 45.6538 17.7131 45.663 17.6795C46.201 15.6693 46.236 14.2427 45.7681 13.3984C45.4984 12.9122 45.1006 12.5983 44.5733 12.4565C44.4955 12.4352 44.4163 12.4199 44.334 12.4077C44.2913 12.4016 44.2471 12.3971 44.2029 12.3925C44.1938 12.3925 44.1831 12.391 44.174 12.391C44.1115 12.3879 44.049 12.3849 43.988 12.3849C43.7548 12.3849 43.5369 12.4123 43.3342 12.4672C42.6788 12.644 42.2368 13.0509 42.0098 13.691C41.932 13.9074 41.8863 14.1437 41.8711 14.4012C41.8695 14.4302 41.868 14.4592 41.8665 14.4881C41.7705 15.7592 42.0159 16.9205 42.6057 17.9737C42.7017 18.1749 42.8023 18.3654 42.9074 18.5437C42.2475 19.7599 41.4459 20.6302 40.5009 21.1544C40.3119 21.2459 40.1169 21.2916 39.9157 21.2916C39.463 21.2916 38.9799 21.0584 38.4663 20.5921L38.4587 20.5844C37.6707 19.8834 37.244 18.9704 37.1815 17.8457C37.1479 17.2665 36.6679 16.8184 36.0948 16.8184C36.0735 16.8184 36.0537 16.8184 36.0323 16.82C35.4318 16.8535 34.9731 17.3686 35.0066 17.9691C35.1042 19.6959 35.7717 21.1102 37.0108 22.2122C37.9603 23.0717 38.9128 23.5015 39.8715 23.5015C40.4156 23.5015 40.9627 23.3628 41.5099 23.0839C41.5205 23.0778 41.5327 23.0717 41.5434 23.0656C42.7002 22.427 43.6802 21.4593 44.4864 20.1592C44.9223 20.3894 45.3993 20.5037 45.916 20.5037C46.3854 20.5037 46.8899 20.4092 47.4263 20.2187C47.533 20.1806 47.6321 20.1272 47.722 20.0586C49.9274 18.3791 51.8172 14.9972 53.3901 9.9113C53.5684 9.33672 53.2468 8.72709 52.6707 8.54877C52.564 8.51524 52.4558 8.5 52.3491 8.5L52.3461 8.5Z" fill="#A7B5BC"/>
</g>
<path d="M51.8142 25.8301C51.7886 25.8301 51.763 25.8301 51.736 25.8329C51.1761 25.8756 50.7583 26.363 50.8009 26.9229C50.8677 27.8026 50.7611 28.5018 50.4798 29.0219C50.2282 29.4738 49.9568 29.7297 49.6683 29.7908C49.4281 29.7908 49.1212 29.5975 48.7488 29.2109C48.638 29.0518 48.5115 28.7903 48.368 28.4251C48.3623 28.4108 48.3566 28.3981 48.3509 28.3838C48.3026 28.2332 48.1875 27.787 48.007 27.0451C47.8947 26.5804 47.4783 26.2692 47.0207 26.2692C46.9411 26.2692 46.8616 26.2792 46.7806 26.2976C46.232 26.4312 45.8966 26.9798 46.0288 27.5255C46.2334 28.3711 46.3699 28.8898 46.4366 29.0802C46.4537 29.1299 46.4736 29.1783 46.4949 29.2223C46.7109 29.7638 46.9298 30.1816 47.1529 30.4743C47.1742 30.5027 47.1984 30.5312 47.2225 30.5567C48.0169 31.4009 48.8312 31.8216 49.664 31.8216C49.7294 31.8216 49.7933 31.8187 49.8587 31.8144C49.8829 31.813 49.9056 31.8102 49.9284 31.8059C50.8947 31.6624 51.6721 31.0584 52.2604 29.9968L52.2661 29.9869C52.7351 29.1171 52.9227 28.0442 52.8246 26.7694C52.7834 26.2365 52.3386 25.8315 51.8128 25.8315L51.8142 25.8301Z" fill="#A7B5BC" stroke="#A7B5BC" stroke-width="0.5" stroke-linejoin="round"/>
<path d="M64.8896 23.5C64.3666 23.5 63.9218 23.9022 63.8792 24.4337C63.7214 26.3664 63.5665 27.6412 63.4131 28.2594C63.4102 28.2707 63.4074 28.2821 63.4045 28.2949C63.3633 28.491 63.3193 28.6274 63.2738 28.7042C63.2283 28.7155 63.1914 28.7212 63.1644 28.7212C63.1544 28.7212 63.1445 28.7212 63.1374 28.7184C62.846 28.5862 62.5504 28.3532 62.2506 28.0192C61.9123 27.4962 61.712 26.7928 61.648 25.9088C61.6096 25.3745 61.1634 24.9666 60.6362 24.9666C60.612 24.9666 60.5864 24.9666 60.5623 24.9694C60.0023 25.0107 59.5817 25.4967 59.6229 26.0552C59.7153 27.3271 60.0407 28.3759 60.5992 29.203C60.622 29.2371 60.6475 29.2698 60.6745 29.301C61.1847 29.8865 61.7276 30.31 62.3032 30.5701C62.4154 30.6213 62.5305 30.6611 62.6513 30.6895C62.8162 30.7293 62.9853 30.7492 63.1587 30.7492C63.4003 30.7492 63.6518 30.7108 63.9133 30.6326C64.2529 30.5374 64.5443 30.3484 64.7859 30.0685C65.0644 29.7473 65.2634 29.3067 65.3856 28.7482C65.5661 28.022 65.7394 26.6393 65.9057 24.5971C65.9512 24.0386 65.5348 23.5483 64.9763 23.5028C64.9479 23.5 64.9209 23.5 64.8924 23.5H64.8896Z" fill="#A7B5BC" stroke="#A7B5BC" stroke-width="0.5" stroke-linejoin="round"/>
<path d="M62.0943 34.4707C61.4832 34.4707 60.8451 34.5347 60.1829 34.6626C57.3832 35.1941 55.081 36.1931 53.2748 37.6611C51.2013 39.1931 49.7703 41.015 48.9815 43.1282C48.7854 43.654 49.0512 44.2381 49.577 44.4357C49.6935 44.4797 49.8143 44.4996 49.9323 44.4996C50.3444 44.4996 50.7309 44.2481 50.883 43.8388C51.5353 42.0936 52.7433 40.573 54.5069 39.2755C54.5211 39.2656 54.5339 39.2556 54.5467 39.2443C56.09 37.9866 58.0952 37.1239 60.5637 36.6564H60.5666C61.0554 36.5612 61.5272 36.5143 61.9806 36.5143C64.4803 36.5143 66.4529 37.9411 67.8996 40.7947C68.0786 41.1472 68.4353 41.3518 68.8063 41.3518C68.9612 41.3518 69.1175 41.3163 69.2653 41.2424C69.7655 40.9894 69.9659 40.3783 69.7115 39.8781C67.8839 36.2741 65.3444 34.4707 62.0928 34.4707H62.0943Z" fill="#A7B5BC" stroke="#A7B5BC" stroke-width="0.5" stroke-linejoin="round"/>
<path d="M18.0241 45.6041C19.5583 42.9099 23.4417 42.9099 24.9759 45.6041L38.5951 69.5206C40.1136 72.1872 38.1878 75.5 35.1192 75.5H7.88085C4.81222 75.5 2.88643 72.1872 4.40491 69.5206L18.0241 45.6041Z" fill="#A7B5BC"/>
<path d="M19.7508 55.48C19.9708 55.14 20.3908 54.98 20.7308 54.98C21.0308 54.98 21.3108 54.98 21.5708 55.04C22.6908 55.34 22.3908 57.54 22.3908 58.4V64.3C22.3908 64.82 22.4308 65.38 22.2508 65.86C21.8908 66.76 19.9708 66.7 19.6108 65.84C19.5308 65.6 19.4908 65.18 19.4708 64.9C19.4508 64.44 19.4708 63.94 19.4708 63.44V56.74C19.4708 56.42 19.5308 55.82 19.7508 55.48ZM22.0508 68.34C22.1308 68.46 22.2108 68.58 22.2508 68.74C22.4108 69.3 22.3708 70.12 21.7108 70.4C21.1308 70.64 20.0108 70.54 19.7508 69.84C19.6108 69.46 19.5908 68.92 19.7308 68.54C19.8908 68.14 20.2708 68.02 20.6708 68.02C21.1708 68 21.7108 68 22.0508 68.34Z" fill="white"/>
<defs>
<clipPath id="clip0_1795_45820">
<rect width="18.4353" height="15" fill="white" transform="translate(35 8.5)"/>
</clipPath>
</defs>
</svg>
