<svg width="33" height="32" viewBox="0 0 33 32" fill="none" xmlns="http://www.w3.org/2000/svg">
<path d="M16.3952 18.8259C18.6486 18.8259 20.4677 17.0586 20.4677 14.8694V6.95647C20.4677 4.76722 18.6486 3 16.3952 3C14.1417 3 12.3226 4.76722 12.3226 6.95647V14.8694C12.3226 17.0586 14.1417 18.8259 16.3952 18.8259ZM24.418 14.8694C23.7529 14.8694 23.1963 15.3442 23.0877 15.9904C22.5311 19.0896 19.7482 21.4635 16.3952 21.4635C13.0421 21.4635 10.2592 19.0896 9.70264 15.9904C9.59404 15.3442 9.03746 14.8694 8.37229 14.8694C7.5442 14.8694 6.8926 15.5816 7.01478 16.3729C7.67996 20.3293 10.938 23.4286 15.0377 23.9956V26.7388C15.0377 27.4641 15.6485 28.0576 16.3952 28.0576C17.1418 28.0576 17.7527 27.4641 17.7527 26.7388V23.9956C21.8523 23.4286 25.1104 20.3293 25.7755 16.3729C25.9113 15.5816 25.2461 14.8694 24.418 14.8694Z" fill="white"/>
</svg>
