<svg width="33" height="32" viewBox="0 0 33 32" fill="none" xmlns="http://www.w3.org/2000/svg">
<path d="M12.5576 5C13.2939 5 13.8904 5.59678 13.8906 6.33301V24.667C13.8904 25.4032 13.2939 26 12.5576 26H10.333C9.59689 25.9998 9.00018 25.4031 9 24.667V6.33301C9.00018 5.59689 9.59689 5.00018 10.333 5H12.5576ZM22.666 5C23.4023 5 23.9998 5.59678 24 6.33301V24.667C23.9998 25.4032 23.4023 26 22.666 26H20.4414C19.7053 25.9998 19.1086 25.4031 19.1084 24.667V6.33301C19.1086 5.5969 19.7053 5.00019 20.4414 5H22.666Z" fill="white"/>
</svg>
