<svg width="16" height="16" viewBox="0 0 16 16" fill="none" xmlns="http://www.w3.org/2000/svg">
<g clip-path="url(#clip0_1806_1159)">
<path d="M12.8634 10.8083L11.1529 10.613C10.7421 10.5658 10.338 10.7073 10.0484 10.9969L8.80931 12.236C6.90346 11.2662 5.34107 9.71057 4.37131 7.79799L5.61718 6.55212C5.90676 6.26254 6.04819 5.85847 6.00105 5.44767L5.80575 3.75059C5.72493 3.07041 5.15251 2.55859 4.46559 2.55859H3.30053C2.53954 2.55859 1.9065 3.19163 1.95365 3.95262C2.31057 9.70384 6.9102 14.2967 12.6547 14.6537C13.4157 14.7008 14.0487 14.0678 14.0487 13.3068V12.1417C14.0554 11.4615 13.5436 10.8891 12.8634 10.8083Z" fill="#FF0606" stroke="#FF0606" stroke-width="0.6"/>
</g>
<defs>
<clipPath id="clip0_1806_1159">
<rect width="16" height="16" fill="white"/>
</clipPath>
</defs>
</svg>
