<svg width="41" height="40" viewBox="0 0 41 40" fill="none" xmlns="http://www.w3.org/2000/svg">
<path d="M8.7714 21.6669C9.60474 21.6669 10.2881 22.2835 10.4047 23.1002C11.2047 28.7169 16.6881 32.8335 22.7714 31.3669C26.5214 30.4669 29.2881 27.5835 30.0881 23.8169C31.4381 17.3669 26.5214 11.6669 20.3047 11.6669V14.3169C20.3047 15.0669 19.5098 15.2997 18.8881 14.9002L13.1157 10.9555C12.7536 10.708 12.3214 10.4304 12.3214 9.99186C12.3214 9.55333 12.7536 9.27568 13.1157 9.02825L18.8881 5.08353C19.4777 4.64997 20.3047 4.93353 20.3047 5.66686V8.33353C28.5381 8.33353 35.0381 15.8002 33.3714 24.3335C32.3714 29.5169 28.5381 33.5002 23.3881 34.6502C15.3381 36.4502 8.13807 30.9835 7.10473 23.5335C6.95473 22.5502 7.7714 21.6669 8.7714 21.6669Z" fill="#7A8A93"/>
<path d="M18.1265 25.6484H16.5657V19.643H16.5244L14.8085 20.7179V19.3432L16.6587 18.1649H18.1265V25.6484Z" fill="#7A8A93"/>
<path d="M22.2882 25.7517C21.6646 25.7517 21.1271 25.6018 20.6757 25.3021C20.2278 24.9989 19.8833 24.5596 19.6421 23.9842C19.4009 23.4088 19.2803 22.7163 19.2803 21.9066C19.2803 21.0969 19.4009 20.4044 19.6421 19.829C19.8833 19.2536 20.2278 18.8161 20.6757 18.5163C21.1271 18.2131 21.6646 18.0615 22.2882 18.0615C22.9084 18.0615 23.4441 18.2131 23.8955 18.5163C24.3468 18.8161 24.6931 19.2554 24.9343 19.8342C25.1755 20.4096 25.2961 21.1004 25.2961 21.9066C25.2961 22.7197 25.1755 23.414 24.9343 23.9894C24.6931 24.5648 24.3468 25.0023 23.8955 25.3021C23.4476 25.6018 22.9118 25.7517 22.2882 25.7517ZM22.2882 24.47C22.5776 24.47 22.8274 24.377 23.0376 24.1909C23.2512 24.0049 23.4149 23.7241 23.5286 23.3485C23.6457 22.973 23.7043 22.5096 23.7043 21.9583C23.7043 21.1004 23.5802 20.4492 23.3322 20.0047C23.0841 19.5568 22.7361 19.3329 22.2882 19.3329C21.8403 19.3329 21.4923 19.5568 21.2442 20.0047C20.9962 20.4492 20.8721 21.1004 20.8721 21.9583C20.8721 22.5096 20.929 22.973 21.0427 23.3485C21.1598 23.7241 21.3235 24.0049 21.5337 24.1909C21.7473 24.377 21.9988 24.47 22.2882 24.47Z" fill="#7A8A93"/>
</svg>
