<svg width="41" height="40" viewBox="0 0 41 40" fill="none" xmlns="http://www.w3.org/2000/svg">
<path d="M31.9493 21.6669C31.116 21.6669 30.4326 22.2835 30.316 23.1002C29.516 28.7169 24.0326 32.8335 17.9493 31.3669C14.1993 30.4669 11.4326 27.5835 10.6326 23.8169C9.28263 17.3669 14.1993 11.6669 20.416 11.6669V14.3169C20.416 15.0669 21.2109 15.2997 21.8326 14.9002L27.605 10.9555C27.9671 10.708 28.3993 10.4304 28.3993 9.99186C28.3993 9.55333 27.9671 9.27568 27.605 9.02825L21.8326 5.08353C21.243 4.64997 20.416 4.93353 20.416 5.66686V8.33353C12.1826 8.33353 5.68263 15.8002 7.3493 24.3335C8.3493 29.5169 12.1826 33.5002 17.3326 34.6502C25.3826 36.4502 32.5826 30.9835 33.616 23.5335C33.766 22.5502 32.9493 21.6669 31.9493 21.6669Z" fill="#7A8A93"/>
<path d="M18.8794 25.6484H17.3186V19.643H17.2773L15.5615 20.7179V19.3432L17.4117 18.1649H18.8794V25.6484Z" fill="#7A8A93"/>
<path d="M23.0411 25.7517C22.4175 25.7517 21.88 25.6018 21.4287 25.3021C20.9808 24.9989 20.6362 24.5596 20.395 23.9842C20.1539 23.4088 20.0333 22.7163 20.0333 21.9066C20.0333 21.0969 20.1539 20.4044 20.395 19.829C20.6362 19.2536 20.9808 18.8161 21.4287 18.5163C21.88 18.2131 22.4175 18.0615 23.0411 18.0615C23.6613 18.0615 24.1971 18.2131 24.6484 18.5163C25.0998 18.8161 25.446 19.2554 25.6872 19.8342C25.9284 20.4096 26.049 21.1004 26.049 21.9066C26.049 22.7197 25.9284 23.414 25.6872 23.9894C25.446 24.5648 25.0998 25.0023 24.6484 25.3021C24.2005 25.6018 23.6648 25.7517 23.0411 25.7517ZM23.0411 24.47C23.3305 24.47 23.5803 24.377 23.7905 24.1909C24.0041 24.0049 24.1678 23.7241 24.2815 23.3485C24.3986 22.973 24.4572 22.5096 24.4572 21.9583C24.4572 21.1004 24.3332 20.4492 24.0851 20.0047C23.837 19.5568 23.489 19.3329 23.0411 19.3329C22.5932 19.3329 22.2452 19.5568 21.9972 20.0047C21.7491 20.4492 21.6251 21.1004 21.6251 21.9583C21.6251 22.5096 21.6819 22.973 21.7956 23.3485C21.9128 23.7241 22.0764 24.0049 22.2866 24.1909C22.5002 24.377 22.7517 24.47 23.0411 24.47Z" fill="#7A8A93"/>
</svg>
